<?xml version="1.0" encoding="utf-8"?>
<!-- Generator: Adobe Illustrator 20.1.0, SVG Export Plug-In . SVG Version: 6.00 Build 0)  -->
<svg version="1.1" id="Layer_1" xmlns="http://www.w3.org/2000/svg" xmlns:xlink="http://www.w3.org/1999/xlink" x="0px" y="0px"
	 viewBox="0 0 66.5 90" style="enable-background:new 0 0 66.5 90;" xml:space="preserve">
<style type="text/css">
	.st0{fill:#0066CC;}
</style>
<path class="st0" d="M48.7,61.2l-12.4,5.7c0,0-0.1,0-0.1,0l8.2,5.6l-7.2,8c-2.1,2.3-1.9,5.9,0.4,8c1.1,1,2.4,1.4,3.8,1.4
	c1.5,0,3.1-0.6,4.2-1.9L56.4,76c2.1-2.3,1.9-5.8-0.3-7.9L48.7,61.2z"/>
<path class="st0" d="M22.2,72.6l8.2-5.6c0,0-0.1,0-0.1,0l-12.4-5.7l-7.4,6.9C8.2,70.2,8,73.7,10.1,76L21,88.1
	c1.1,1.2,2.7,1.9,4.2,1.9c1.3,0,2.7-0.5,3.8-1.4c2.3-2.1,2.5-5.7,0.4-8L22.2,72.6z"/>
<path class="st0" d="M66.3,29.8c-0.7-2.2-3.1-3.3-5.2-2.6L40.7,34H25.8L5.5,27.2c-2.2-0.7-4.5,0.5-5.2,2.6c-0.7,2.2,0.5,4.5,2.6,5.2
	l15.9,7.4v11.9h29V42.5l15.9-7.4C65.8,34.4,67,32,66.3,29.8z"/>
<circle class="st0" cx="33.2" cy="15" r="15"/>
</svg>
