<?xml version="1.0" encoding="utf-8"?>
<!-- Generator: Adobe Illustrator 20.1.0, SVG Export Plug-In . SVG Version: 6.00 Build 0)  -->
<svg version="1.1" id="Layer_1" xmlns="http://www.w3.org/2000/svg" xmlns:xlink="http://www.w3.org/1999/xlink" x="0px" y="0px"
	 viewBox="0 0 32 90.1" style="enable-background:new 0 0 32 90.1;" xml:space="preserve">
<style type="text/css">
	.st0{fill:#0066CC;}
	.st1{fill:none;stroke:#000000;stroke-width:16;stroke-miterlimit:10;}
</style>
<g>
	<g>
		<path class="st0" d="M16,2.2c2.8,0,5.1,2.3,5.1,5.1s-2.3,5.1-5.1,5.1s-5.1-2.3-5.1-5.1S13.2,2.2,16,2.2 M16,0
			c-4,0-7.3,3.3-7.3,7.3s3.3,7.3,7.3,7.3s7.3-3.3,7.3-7.3S20,0,16,0L16,0z"/>
		<path class="st1" d="M16,7.3"/>
		<circle class="st0" cx="16.2" cy="7.5" r="5.7"/>
	</g>
	<path class="st0" d="M30.7,26.3c0-5.3-4.1-9.6-9.3-9.6H16h-5.4c-5.2,0-9.3,4.3-9.3,9.6L0,48.9c0,4.4,5.4,4.4,5.4,0L7,28.2h1.1
		c0,0-1.1,15.3-1.1,19s1.2,38.5,1.2,38.5c0,5.9,7.2,5.7,7.2,0V52h0.2h0.2h0.4h0.2h0.2v33.6c0,5.7,7.2,5.9,7.2,0
		c0,0,1.2-34.9,1.2-38.5s-1.1-19-1.1-19H25l1.6,20.8c0,4.4,5.4,4.4,5.4,0L30.7,26.3z"/>
</g>
</svg>
